<?xml version="1.0" encoding="UTF-8"?>
<svg id="Layer_1" data-name="Layer 1" xmlns="http://www.w3.org/2000/svg" viewBox="0 0 1140.82 153.77">
  <defs>
    <style>
      .cls-1 {
        fill: #000;
        stroke-width: 0px;
      }
    </style>
  </defs>
  <path class="cls-1" id="P" d="M3.3,13.45c16.97.07,32.97.07,49.55,1.38,3.56.32,7.13.71,10.67,1.18,24.8,3.32,48.32,11.01,63.13,32.71,1.64,2.89,3.04,5.84,4.16,8.82,1.12,2.97,1.95,5.97,2.45,8.97.45,3.83.2,7.17-.62,10.09s-2.23,5.44-4.03,7.69c-18.35,21.21-46.35,21.21-72.35,22.21-9,0-14,9-13.27,17.62-.16,4.1-.21,8.3-.21,12.08v13.22H.13v-10.18c0-3.18,0-7,.01-11.3.13-4.44-.87-7.44,1.13-11.44,1.5-2.83,3.19-5.67,4.94-8.51s3.56-5.7,5.41-8.48c30.65-23.01-2.35-55.01-7.42-82.9-.6-2.06-.9-3.17-.9-3.17ZM71.25,77.33c7.02-1.81,18.02,2.19,21.02-6.81,2-5,0-11-3-15-11-11-28-8-42-7,4,11,15,15,21.46,24.3,1.72,2.65,2.52,4.51,2.52,4.51Z"/>
  <path class="cls-1" id="R" d="M149.61,149.72c-.35-7.2-5.35-14.2-4.35-21.2,6-29,20-59,1.38-85.39-1.59-3.2-3.38-6.41-5.38-9.61-2-3-3.01-6.99-1.75-11.31-1.13-4.34-.69-7.26,1.19-8.92s5.22-2.03,9.88-1.29c18.67,1.52,36.67-5.48,55.67-9.48,21-3,36,12,52.42,21.29,2.36,1.66,4.55,3.51,6.48,5.58,3.88,4.13,6.76,9.13,8.1,15.13,4,14-7,29-21,32,23,4,16,36,21.36,53.43.7,3.26,1.33,6.51,1.78,9.78.45,3.27.73,6.55.86,9.8-2.22,0-4.52.1-6.86.24-2.34.14-4.72.34-7.08.5-15.03,3.13-23.54-3.56-28.43-13.77-1.22-2.55-2.21-5.33-3.03-8.23-3.61-10.74-.61-22.74-6.61-32.74-6-11-21-3-25,5-10,20-19,41-43.48,46.28-3.65,1.76-6.17,2.92-6.17,2.92ZM195.27,60.72c9-1.2,19,4.8,26-3.2,7-11-2-25-14-27-8-1-18-2-22,3-4,6,2,15,7.14,22.26,1.69,2.9,2.87,4.94,2.87,4.94Z"/>
  <path class="cls-1" id="O" d="M292.14,70.95c-.53-6.59-.51-13.7.37-20.68.29-2.32.68-4.63,1.19-6.9,19.57-31.86,76.57-31.86,107.57-16.86,27,13,41,55,28,82-5,13-19,22-31.5,30-2.26,1.69-4.66,3.26-7.22,4.69-10.22,5.72-22.95,8.58-38.2,8.58-7.75,0-14.83-.62-21.25-1.85-2.14-.41-4.2-.89-6.18-1.45-14.83-2.98-21.24-13.47-25.69-25.71-1.11-3.06-2.08-6.24-2.89-9.55-.77-2.68-1.29-5.37-1.67-8.06-.38-2.69-.64-5.37-.85-8.08-1.57-5.57.43-10.57-1.47-16.53-.13-3.14-.19-6.36-.22-9.59ZM331.27,73.83c.33,3.07.54,6.5.8,9.99.27,3.49.58,7.05,1.03,10.54,1.82,13.94,5.82,26.83,23.16,24.16,3.62-.5,6.77-1.5,9.49-2.91s5.04-3.22,7.12-5.24c9.4-11.85,27.4-17.85,27.4-34.85,0-10-7-18-16-23-12-6-26-4-39-2-7,0-16,5-14.04,14.22-.22,2.69-.16,5.71.05,9.09Z"/>
  <path class="cls-1" id="J" d="M509.98,18.39c2.74-.77,5.88-1.8,9.16-2.79,3.36-.94,6.82-1.87,10.01-2.52,6.37-1.31,11.62-1.56,13.12,1.44,1.9,3.2,3.55,6.48,5.05,9.69,5.95,14.31,15.95,26.31,16.95,42.31,2,34-11,74-47,83-21,6-43,7-62-6-10-8-18-24-7-32,16-13,34-15,42,9,2,5,13,5,15-1,5-14-2-29,7.5-42.16.83-1.95,1.66-3.89,2.5-5.84,8-16,0-33-3.97-48.6-.85-2.88-1.32-4.53-1.32-4.53Z"/>
  <path class="cls-1" id="E" d="M574.43,9.55c13.83-3.03,26.83-6.03,40.83-3.03,26,4,51,6,77,13,10,3,9,17,9,26-27-7-56-11-81-5-6,2-1,21,12.62,18.59,2.82-.03,5.65-.08,8.48-.14,5.66-.11,11.28-.14,16.91-.08,2.81.03,5.62.09,8.44.17,8.56.46,17.56.46,26.56,2.46-1,5-3,9-4.35,13.52-.46,2.36-.74,4.73-.73,7.14s.33,4.84,1.08,7.34c-17,4-37-8-48,2-5,4,0,19-4,29,13,3,26,1,38.62-1.89,3.28-.58,6.38-1.1,9.21-1.47,8.47-1.1,14.42-.77,15.17,3.36,8,31.43-20.57,34.12-54.55,31.97-2.12-.13-4.27-.29-6.43-.46-10.01-.25-19.51-2.88-29.02-4.95-3.17-.69-6.33-1.31-9.48-1.83-5.52-.73-12.52-2.73-18.52-.73,3-22,20-43,13-66-6-20-18-38-20.07-60.35-.49-5.35-.77-8.62-.77-8.62Z"/>
  <path class="cls-1" id="C" d="M823.47,94.29c10.8.23,25.8.23,26.8,13.23,5,39-43,47-71.8,44.29-2.75-.25-5.48-.67-8.17-1.28-2.69-.61-5.34-1.42-7.93-2.43-3.14-1.22-6.19-2.74-9.1-4.58-4-2.99-9-5.99-12-9.99-3-4.75-5.81-9.44-8.47-14.11-1.33-2.34-2.62-4.67-3.87-7-18.66-33.89,3.34-85.89,32.28-106.61,3.21-1.17,6.44-2.2,9.63-3.08,3.19-.88,6.35-1.62,9.44-2.2,15-2.5,26.09,4.38,35.33,14.13,1.85,1.95,3.62,4.02,5.33,6.14,7.34,10.73,17.34,20.73,23.34,32.73-5-.5-9.5,2.25-14,4.62-2.25,1.19-4.5,2.28-6.81,2.83-17.19.55-22.19-18.45-33.19-26.45-3-3-8-3-9-1-14,24-21,61-3,82,11,11,35,7,42.28-9.29,1.54-3.61,2.51-7.61,2.92-11.94Z"/>
  <path class="cls-1" id="T" d="M852.44,12.72c28.55,7.86,57.63,12.26,86.28,9.58,3.58-.34,7.16-.78,10.72-1.34,11.83-.44,24.83-11.44,32.83-7.44,10,5,31,22,19,35-9,9-26,3-39,7,1,2,2,5,1,7-9,17-27,30-21,52,2,9,7,22,2,26-8,8-29,13-36,7-10-9-11-31-5.7-48.45.8-3.32,1.55-6.65,2.21-9.98.65-3.33,1.2-6.67,1.59-10.03.39-3.36.61-6.75.67-10.14,6.23-26.4-25.77-20.4-41.76-20.4-4.01-.5-7.51-2.25-9.89-4.93s-3.66-6.29-3.21-10.52c-.9-4.55,3.1-9.55.55-14.96-.18-3.23-.28-5.38-.28-5.38Z"/>
  <path class="cls-1" id="S" d="M1004.76,104.67c5.51,1.84,11.51.84,17.13,1.22,2.96-.09,5.9-.16,8.83-.22,8.8-.16,17.55-.16,26.55-.16-2,5-12,9-6,15,4,4.67,10.44,6.56,17.19,6.63,3.37.04,6.81-.38,10.07-1.13,5.75-2.5,14.75-1.5,16.75-6.5,3-19-24-25-38.32-29.92-3.46-1.1-6.89-2.22-10.19-3.51s-6.49-2.75-9.43-4.51c-12.05-7.06-17.05-20.06-21.05-32.06-4-13-7-35,9-35,35-2,93-2,88,38-2,18-33,8-48-8-4-5-11-6-18-5-5,1-10,6-6,9,20,19,47,21,72,29,11,4,21,13,25,25,4,14,5,34-10,39-15,6-30,3-44.86,6.52-3.13.71-6.16,1.45-9.02,2.31-2.76.48-5.66.84-8.7,1.08s-6.23.36-9.56.36c-15.58,0-27.97-2-37.17-6-2.3-1-4.4-2.12-6.28-3.37-2.35-1.72-4.49-3.77-6.32-6.15-4.09-7.74-8.09-17.74-5.24-26.65.93-1.72,2.14-3.36,3.63-4.93Z"/>
</svg>