<?xml version="1.0" encoding="UTF-8"?>
<svg id="Layer_1" data-name="Layer 1" xmlns="http://www.w3.org/2000/svg" viewBox="0 0 1130.44 153.05">
  <defs>
    <style>
      .cls-1 {
        fill: #000;
        stroke-width: 0px;
      }
    </style>
  </defs>
  <path class="cls-1" d="M.17,12h70.59c7.69,0,14.41.91,20.17,2.74,2.88.91,5.52,2.06,7.91,3.43,16.47,12.35,31.47,30.35,34.47,48.35,4,34-47,30-72,32-10,1-19,7-18.13,18.06-.2,2.49-.23,5.01-.35,7.36v25.5H.17v-10.18c0-3.18,0-7,.01-11.3.13-4.44-.87-7.44,1.13-11.44,9-17,25-34,17-54C12.31,48.52-1.69,38.52.17,22.18v-10.18ZM66.51,70.15c8.8-.63,19.8,6.37,24.8-2.63,8-12-8-22-19-26-8-2-16-2-24-2,5,9,14,16,17.02,25.84.91,2.87,1.17,4.79,1.17,4.79Z"/>
  <path class="cls-1" d="M139.57,149.44v-10.18c0-3.18.02-7,.28-11.24,20.45-29.5,21.45-62.5,1.45-94.5-2-3-3-7-1.73-11.34v-10.18h70.78c13.12,0,23.16,1.12,30.09,3.38,3.47,1.12,6.6,2.73,9.4,4.82s5.26,4.65,7.49,7.61c5.97,7.71,10.97,17.71,10.97,27.71,1,13-9,26-22,30,23,0,23,28,27.35,44.44.71,3.25,1.33,6.5,1.79,9.77.45,3.27.73,6.55.86,9.8-13.33,0-29.44,3.47-40.23,0-2.16-.69-4.1-1.67-5.77-3-9-9-8-23-9-35-1-4-2-10-7-11-7-1-12,3-16,8-7,10-13,19-15.46,30.09-1.14,3.16-2.54,5.87-4.42,7.79-1.88,1.92-4.23,3.05-7.25,3.04h-31.6ZM192.79,71.19c10.52-1.68,30.52-.68,28.76-17.72-.56-4.38-2.01-7.79-4.82-10.16-2.81-2.37-8.09-3.56-15.84-3.56,0,0-4.66,0-9.32,0-3.26-.24-6.26-.24-9.26-.24,0,9,3,18,7.67,26.48,1.65,3.11,2.81,5.19,2.81,5.19Z"/>
  <path class="cls-1" d="M290.2,73.44c-3.89-21.93,2.11-46.93,22.11-58.93,18-10,39-8,57.83-5.8,3.23.58,6.42,1.34,9.52,2.31,9.3,2.91,17.78,7.72,24.65,14.12,2.29,2.13,4.4,4.44,6.31,6.92,8.7,10.45,11.7,24.45,11.01,36.97.34,3.42.51,6.97.51,10.66,0,16.06-2.7,29.24-8.11,39.52-5.41,10.28-13.22,18.28-23.44,24s-22.95,8.58-38.2,8.58c-7.75,0-14.83-.62-21.25-1.85-2.14-.41-4.2-.89-6.18-1.45-14.83-2.98-21.24-13.47-25.69-25.71-1.11-3.06-2.08-6.24-2.89-9.55-3.08-10.7-2.08-21.7-4.95-31.41-.45-2.75-.85-5.55-1.23-8.36ZM331.25,73.77c.38,3.12.6,6.55.87,10.05.27,3.49.58,7.05,1.03,10.54,1.82,13.94,5.82,26.83,23.16,24.16,29-4,27-40,27-63,0-3.5-1-7-2.88-10s-4.62-5.5-8.12-7c-19-9-46,2-41.68,25.7.05,2.92.29,6.08.63,9.56Z"/>
  <path class="cls-1" d="M510.02,18.39c2.74-.77,5.88-1.8,9.16-2.79,3.36-.94,6.82-1.87,10.01-2.52,6.37-1.31,11.62-1.56,13.12,1.44,1.9,3.2,3.55,6.48,4.97,9.83s2.62,6.78,3.75,10.34c15.28,32.84,15.28,67.84-12.84,93.78-1.76,2.75-3.75,5.4-6.11,7.88s-5.12,4.79-8.27,6.92c-8.41,5.68-19.17,8.53-32.3,8.53-13.88,0-24.62-1.88-32.25-5.62-7.63-3.75-13.52-9.23-17.67-16.45-4.16-7.22-6.61-16.14-7.36-26.77l20.3-2.77,9.77-1.33c6.01-.82,10.55-1.42,10.55-1.42,0,3.02.15,5.66.42,7.91s.65,4.11,1.15,5.58c1,2.94,2.69,5.31,5.06,7.12,1.62,1.19,3.94,1.78,6.94,1.78,4.75,0,8.23-1.76,10.45-5.29,4.44-15,10.44-29,16.44-43,8-16,0-33-3.97-48.6-.85-2.88-1.32-4.53-1.32-4.53Z"/>
  <path class="cls-1" d="M572.98,12h113.81v29.34h-71.25s0,5.46.23,11.02c-.41,3.19-.11,5.55.72,7.27,1.82,3.88,5.82,4.88,10.16,4.32,2.33,0,4.86-.24,7.42-.51,5.14-.52,10.42-1.15,14.51-.26h33.05v4.38c-1.33,7.95,2.67,15.95,5.67,22.95-19,3-38,2-56,7,4,8,7,17,3,26,25,2,64-14,66-3,14,55-84,22-127,29-2-16,9-28,15-41,11-22-12-43-13.63-66.35-.49-3.29-.88-6.59-1.17-9.92-.29-3.33-.47-6.68-.53-10.07v-10.18Z"/>
  <path class="cls-1" d="M811.71,88.38c11.6,1.14,29.6,6.14,30.6,13.14,0,37.58-45.38,60.04-79.9,46.58-3.14-1.22-6.19-2.74-9.1-4.58-4-2.99-9-5.99-12-9.99-12-19-21-37-29-57-17-40,31-69,68-76,24-4,38,16,50.37,33.38,1.48,1.9,2.9,3.85,4.23,5.86,2.65,4.01,4.9,8.26,6.4,12.76-6-2-11,1-17.15,2.38-2.84.92-5.64,1.88-8.3,2.61-4.55,2.01-12.55,2.01-13.55-2.99-5-15-20-31-35-19-15,13-13,32-9,49,2,12,7,27,20.88,30.43,2.33.57,4.75.77,7.16.63,9.63-.53,18.96-6.13,22.96-16.26,1.37-3.3,2.18-6.96,2.4-10.95Z"/>
  <path class="cls-1" d="M852.41,12.69c42.9,9.83,84.9,3.83,127.9-.17,1,12,8,25,5,34-4,11-22,7-34,7,10,17-7,32-10.29,48.47-.78,3.02-1.53,6.04-2.18,9.09-.65,3.05-1.2,6.12-1.58,9.22-.06,2.34-.06,4.61-.06,6.79v22.36h-42.47v-32.75c.01-3.63.03-7.41.1-11.23-.51-6.65,1.49-13.41,3.89-19.92,1.2-3.26,2.51-6.45,3.65-9.53,2.93-7.49,6.93-16.49.93-22.49-9-7-21-5-30.76-4.59-2.8-.05-5.52-.23-8.09-.73-2.56-.5-4.98-1.34-7.15-2.67-2.25-1.5-3.56-3.38-4.3-5.5-.73-2.12-.88-4.48-.8-6.95-.9-4.55,3.1-9.55.49-14.99-.18-3.23-.28-5.38-.28-5.38Z"/>
  <path class="cls-1" d="M1003.01,106.41c16.3-.89,33.3-1.89,49.3-2.89-3,5-8,11-4,17,6,8,17,6,25,3,8-2,23-11,17-16-27-26-83-20-89-67,0-7,4-14,10-19.07,1.54-1.23,3.21-2.38,5-3.45s3.72-2.05,5.78-2.95c8.22-3.59,19.48-5.39,33.8-5.39,17.56,0,30.95,3.27,40.17,9.8,2.3,1.63,4.38,3.51,6.21,5.62s3.46,4.46,4.95,7c4.09,5.44,7.09,10.44,9.09,16.44-3.17,0-6.44.36-9.75.86s-6.63,1.14-9.9,1.69c-12.35,3.45-26.35.45-30.88-11.6-1.7-1.41-3.73-2.46-6.08-3.16s-5.03-1.05-8.03-1.05c-4.94,0-8.65,1.05-11.02,3.19-8.34,11.08,4.66,16.08,12.66,18.08,28,7,67,2,76,38,8,34-28,51-54.88,55.82-2.76.48-5.66.84-8.7,1.08s-6.23.36-9.56.36c-15.58,0-27.97-2-37.17-6-2.3-1-4.4-2.12-6.28-3.37-2.35-1.72-4.49-3.76-6.35-6.04s-3.45-4.79-4.69-7.46c-1.36-5.39-3.36-11.39-1.61-16.75.76-1.88,1.75-3.8,2.96-5.75Z"/>
</svg>