<?xml version="1.0" encoding="UTF-8"?>
<svg id="Layer_1" data-name="Layer 1" xmlns="http://www.w3.org/2000/svg" viewBox="0 0 1116.84 142.12">
  <defs>
    <style>
      .cls-1 {
        stroke-width: 0px;
      }
    </style>
  </defs>
  <path class="cls-1" fill="black" id="P" d="M0,2.34h70.59c15.38,0,26.89,3.66,34.55,10.97,7.66,7.31,11.48,17.72,11.48,31.22s-4.17,24.72-12.52,32.53c-8.34,7.81-21.08,11.72-38.2,11.72h-23.25v51H0V2.34ZM42.66,60.94h10.41c8.19,0,13.94-1.42,17.25-4.27,3.31-2.84,4.97-6.48,4.97-10.92s-1.44-7.97-4.31-10.97c-2.88-3-8.28-4.5-16.22-4.5h-12.09v30.66Z"/>
  <path class="cls-1" fill="black" id="R" d="M139.41,139.78V2.34h70.78c13.12,0,23.16,1.12,30.09,3.38s12.53,6.42,16.78,12.52c4.25,6.09,6.38,13.52,6.38,22.27,0,7.63-1.63,14.2-4.88,19.73s-7.72,10.02-13.41,13.45c-3.63,2.19-8.6,4-14.92,5.44,5.06,1.69,8.74,3.38,11.05,5.07,1.56,1.13,3.83,3.54,6.79,7.23s4.95,6.54,5.95,8.54l20.57,39.82h-47.99l-22.7-42c-2.88-5.44-5.44-8.97-7.69-10.59-3.06-2.12-6.53-3.19-10.41-3.19h-3.75v55.78h-42.66ZM182.06,58.03h17.91c1.94,0,5.69-.62,11.25-1.88,2.81-.56,5.11-2,6.89-4.31,1.78-2.31,2.67-4.97,2.67-7.97,0-4.44-1.41-7.84-4.22-10.22-2.81-2.37-8.09-3.56-15.84-3.56h-18.66v27.94Z"/>
  <path class="cls-1" fill="black" id="O" d="M279.56,71.16c0-22.44,6.25-39.91,18.75-52.41,12.5-12.5,29.91-18.75,52.22-18.75s40.5,6.14,52.88,18.42,18.56,29.48,18.56,51.61c0,16.06-2.7,29.24-8.11,39.52-5.41,10.28-13.22,18.28-23.44,24s-22.95,8.58-38.2,8.58-28.33-2.47-38.48-7.41c-10.16-4.94-18.39-12.75-24.7-23.44-6.31-10.69-9.47-24.06-9.47-40.12ZM322.03,71.34c0,13.88,2.58,23.84,7.73,29.91,5.16,6.06,12.17,9.09,21.05,9.09s16.19-2.97,21.19-8.91c5-5.94,7.5-16.59,7.5-31.97,0-12.94-2.61-22.39-7.83-28.36-5.22-5.97-12.3-8.95-21.23-8.95s-15.44,3.03-20.62,9.09c-5.19,6.06-7.78,16.09-7.78,30.09Z"/>
  <path class="cls-1" fill="black" id="J" d="M502.03,2.34h42.56v74.67c0,15.68-1.39,27.61-4.17,35.79-2.78,8.18-8.38,15.11-16.78,20.8-8.41,5.68-19.17,8.53-32.3,8.53-13.88,0-24.62-1.88-32.25-5.62-7.63-3.75-13.52-9.23-17.67-16.45-4.16-7.22-6.61-16.14-7.36-26.77l40.59-5.53c.06,6.06.59,10.56,1.59,13.5,1,2.94,2.69,5.31,5.06,7.12,1.62,1.19,3.94,1.78,6.94,1.78,4.75,0,8.23-1.76,10.45-5.29,2.22-3.53,3.33-9.48,3.33-17.84V2.34Z"/>
  <path class="cls-1" fill="black" id="E" d="M572.81,2.34h113.81v29.34h-71.25v21.84h66.09v28.03h-66.09v27.09h73.31v31.12h-115.88V2.34Z"/>
  <path class="cls-1" fill="black" id="C" d="M803.06,83.53l37.22,11.25c-2.5,10.44-6.44,19.16-11.81,26.16-5.38,7-12.05,12.28-20.02,15.84s-18.11,5.34-30.42,5.34c-14.94,0-27.14-2.17-36.61-6.51-9.47-4.34-17.64-11.97-24.52-22.91-6.88-10.93-10.31-24.92-10.31-41.97,0-22.73,6.05-40.21,18.14-52.42S753.94,0,776.06,0c17.31,0,30.92,3.5,40.83,10.5,9.91,7,17.26,17.75,22.08,32.25l-37.5,8.34c-1.31-4.19-2.69-7.25-4.12-9.19-2.38-3.25-5.28-5.75-8.72-7.5-3.44-1.75-7.28-2.62-11.53-2.62-9.62,0-17,3.87-22.12,11.61-3.88,5.74-5.81,14.76-5.81,27.06,0,15.23,2.31,25.67,6.94,31.32,4.62,5.65,11.12,8.47,19.5,8.47s14.26-2.28,18.42-6.84c4.16-4.56,7.17-11.19,9.05-19.88Z"/>
  <path class="cls-1" fill="black" id="T" d="M851.25,2.34h129.09v33.94h-43.31v103.5h-42.47V36.28h-43.31V2.34Z"/>
  <path class="cls-1" fill="black" id="S" d="M992.16,94.31l40.41-2.53c.88,6.56,2.66,11.56,5.34,15,4.37,5.56,10.62,8.34,18.75,8.34,6.06,0,10.73-1.42,14.02-4.27,3.28-2.84,4.92-6.14,4.92-9.89s-1.56-6.75-4.69-9.56c-3.13-2.81-10.38-5.47-21.75-7.97-18.62-4.19-31.91-9.75-39.84-16.69-8-6.94-12-15.78-12-26.53,0-7.06,2.05-13.73,6.14-20.02,4.09-6.28,10.25-11.22,18.47-14.81,8.22-3.59,19.48-5.39,33.8-5.39,17.56,0,30.95,3.27,40.17,9.8,9.22,6.53,14.7,16.92,16.45,31.17l-40.03,2.34c-1.06-6.19-3.3-10.69-6.7-13.5-3.41-2.81-8.11-4.22-14.11-4.22-4.94,0-8.66,1.05-11.16,3.14-2.5,2.09-3.75,4.64-3.75,7.64,0,2.19,1.03,4.16,3.09,5.91,2,1.81,6.75,3.5,14.25,5.06,18.56,4,31.86,8.05,39.89,12.14,8.03,4.09,13.88,9.17,17.53,15.23,3.66,6.06,5.48,12.84,5.48,20.34,0,8.81-2.44,16.94-7.31,24.38-4.88,7.44-11.69,13.08-20.44,16.92-8.75,3.84-19.78,5.77-33.09,5.77-23.38,0-39.56-4.5-48.56-13.5s-14.09-20.44-15.28-34.31Z"/>

</svg>