<?xml version="1.0" encoding="UTF-8"?>
<svg id="Layer_1" data-name="Layer 1" xmlns="http://www.w3.org/2000/svg" viewBox="0 0 1137.11 153.05">
  <defs>
    <style>
      .cls-1 {
        fill: #000;
        stroke-width: 0px;
      }
    </style>
  </defs>
  <path class="cls-1" d="M.16,12s4.41,0,11.04.04c39.11,3.48,90.11-.52,115.49,36.69,1.64,2.89,3.04,5.84,4.16,8.82,1.12,2.97,1.95,5.97,2.45,8.97,3.6,30.6-37.35,30.42-63.8,31.54-2.94.12-5.7.26-8.2.46-4,1-9,2-13.14,5.26-1.69,1.5-3.05,3.32-3.93,5.45s-1.28,4.58-1.06,7.35c-.2,2.49-.23,5.01-.35,7.36v25.5H.16v-10.18c0-3.18,0-7,.01-11.3.13-4.44-.87-7.44,1.13-11.44,1.5-2.83,3.19-5.67,4.94-8.51s3.54-5.71,5.24-8.6c6.82-8.89,9.82-19.89,6.82-30.89C13.3,52.52-1.7,40.52.16,22.18c0-6.37,0-10.18,0-10.18ZM64.55,71.48c9.75-.96,28.75,5.04,26.75-7.96-2-21-33-16-50-19,4,10,15,14,21.09,22.92,1.53,2.4,2.15,4.04,2.15,4.04Z"/>
  <path class="cls-1" d="M139.57,149.44v-10.18c0-3.18.02-7,.28-11.24,20.45-29.5,21.45-62.5,1.45-94.5-2-3-3.01-6.99-1.75-11.31-2.25-8.69,1.75-11.69,11.07-10.2h59.72c6.56,0,12.35.28,17.37.84,2.51.28,4.82.63,6.94,1.05,16.64,3.62,34.64,12.62,38.64,30.62,4,14-7,29-21,32,23,4,16,36,21.36,53.43.7,3.26,1.33,6.51,1.78,9.78.45,3.27.73,6.55.86,9.8-2.22,0-4.52.1-6.86.24-2.34.14-4.72.34-7.08.5-30.06,6.26-34.06-26.74-35.06-48.74-1-6-7-9-13-7-22,8-22,35-36,50-7,6-17,4-25.21,4.86-2.52.06-4.85.06-6.85.06h-6.67ZM192.78,71.19c9.52-1.68,20.52-.68,27.52-9.68,4-6,2-15-3.54-18.25-1.44-1.15-3.47-2.03-6.11-2.63s-5.9-.89-9.77-.89c0,0-4.66,0-9.32,0-3.26-.24-6.26-.24-9.26-.24,0,9,3,18,7.67,26.48,1.65,3.11,2.81,5.19,2.81,5.19Z"/>
  <path class="cls-1" d="M292.18,70.95c-.7-8.79-.44-18.5,1.55-27.58.66-3.03,1.52-5.98,2.59-8.81,18.99-32.04,67.99-23.04,96.99-14.04,30,9,35,46,31,75-3,17-12,33-26.5,43-2.26,1.69-4.66,3.26-7.22,4.69-10.22,5.72-22.95,8.58-38.2,8.58-7.75,0-14.83-.62-21.25-1.85-2.14-.41-4.2-.89-6.18-1.45-14.83-2.98-21.24-13.47-25.69-25.71-1.11-3.06-2.08-6.24-2.89-9.55-.77-2.68-1.29-5.37-1.67-8.06-.38-2.69-.64-5.37-.85-8.08-1.57-5.57.43-10.57-1.47-16.53-.13-3.14-.19-6.36-.22-9.59ZM331.24,73.77c.38,3.12.6,6.55.87,10.05.27,3.49.58,7.05,1.03,10.54,1.82,13.94,5.82,26.83,23.16,24.16,3.62-.5,6.77-1.5,9.49-2.91s5.02-3.23,7.02-5.32c13.49-16.77,28.49-44.77,9.49-60.77-11-10-28-9-42-4-7,3-11,11-9.65,18.73.02,2.89.25,6.05.59,9.53Z"/>
  <path class="cls-1" d="M510.01,18.39c2.74-.77,5.88-1.8,9.16-2.79,3.36-.94,6.82-1.87,10.01-2.52,6.37-1.31,11.62-1.56,13.12,1.44,1.9,3.2,3.55,6.48,4.97,9.83s2.62,6.78,3.75,10.34c6.11,13.13,9.78,26.61,10.18,39.72.1,3.28,0,6.53-.32,9.75-2.58,35.36-31.58,69.36-69.05,67.54-3.63.05-6.98-.05-10.14-.27-9.23-.7-16.71-2.46-22.43-5.27-3.81-1.88-7.19-4.18-10.14-6.93-8.82-8.72-17.82-23.72-11.82-33.72,4-6,17-5,27.01-6.61,6-.88,10.54-1.48,10.54-1.48,0,3.02.15,5.66.42,7.91s.65,4.11,1.15,5.58c1,2.94,2.69,5.31,5.06,7.12,1.62,1.19,3.94,1.78,6.94,1.78,4.75,0,8.24-1.77,10.45-5.29.74-2.5,1.52-4.97,2.34-7.42,4.1-12.25,9.1-23.91,14.1-35.58,8-16,0-33-3.97-48.6-.85-2.88-1.32-4.53-1.32-4.53Z"/>
  <path class="cls-1" d="M572.97,12h71c2.31,0,4.58,0,6.8,0,11.52-.48,27.52-4.48,34.52,1.52,6,5,8,17,10,27-26-2-53-1-79,1,1,7-1,19,8,18,23-1,45-1,68,1-2,10-6,19-3,29-17,4-37-8-48,2-5,4,0,19-4,29,13,3,26,1,38.62-1.89,3.28-.58,6.38-1.1,9.21-1.47,8.47-1.1,14.42-.77,15.17,3.36,8,31.43-20.57,34.12-54.55,31.97-2.12-.13-4.27-.29-6.43-.46-20.02-.51-38.02-10.51-58.02-6.51,1-19,16-34,14-53-1-9-9-16-12.7-24.9-1.24-2.76-2.46-5.53-3.57-8.33-2.21-5.6-3.96-11.29-4.37-17.12-.49-3.29-.88-6.59-1.17-9.92-.29-3.33-.47-6.68-.53-10.07v-10.18Z"/>
  <path class="cls-1" d="M819.62,91.29c9.68,3.22,24.68,1.22,27.68,11.22,3,9-8,20-15.65,28.21-2.29,2.64-4.8,5.09-7.53,7.3-16.38,13.29-41,18.15-61.72,10.07-3.14-1.22-6.19-2.74-9.1-4.58-4-2.99-9-5.99-12-9.99-6-9.5-11.25-18.75-16-28.12-1.19-2.34-2.33-4.69-3.33-7.05-11.67-33.83,1.33-81.83,39.27-92.55,3.21-1.17,6.44-2.2,9.63-3.08,3.19-.88,6.35-1.62,9.44-2.2,15-2.5,26.09,4.38,35.33,14.13,1.85,1.95,3.62,4.02,5.33,6.14,7.34,10.73,17.34,20.73,23.34,32.73-10-1-18,11-28,7-14-6-26-39-39-25-15,17-25,57-4.35,76.82,1.85,1.15,3.91,2.04,6.23,2.61,2.33.57,4.75.77,7.16.63,10.96-.07,19.96-7.07,26.99-14.75,2.61-2.84,4.74-6.02,6.29-9.54Z"/>
  <path class="cls-1" d="M852.47,12.72c42.83,11.8,86.83,15.8,128.83-.2,2,12,11,21,16,31,2,6,5,15-4,17-11,2-22-1-33-2,5,13-11,22-16.02,33.33-.88,2.03-1.56,4.14-2.16,6.28-1.19,4.27-2.05,8.66-3.27,12.93-.67,3.07-1.22,6.14-1.6,9.24-.06,2.34-.06,4.61-.06,6.79v22.36h-42.47s0-3.64,0-9.55c1.18-21.28,9.35-40.66,11.67-60.83.39-3.36.61-6.75.67-10.14,6.23-26.4-25.77-20.4-41.76-20.4-4.01-.5-7.51-2.25-9.89-4.93s-3.66-6.29-3.21-10.52c-.9-4.55,3.1-9.55.55-14.96-.18-3.23-.28-5.38-.28-5.38Z"/>
  <path class="cls-1" d="M1003.89,106.78c18.41-1.26,35.41-1.26,53.41-1.26-2,5-12,9-6,15,12,14,46,3,44-7-6-24-47-19-66-38-14-13-33-42-13-57.52,1.8-1.07,3.72-2.05,5.78-2.95,8.22-3.59,19.48-5.39,33.8-5.39,17.56,0,30.95,3.27,40.17,9.8,2.3,1.63,4.38,3.51,6.21,5.62s3.46,4.46,4.95,7c4.09,5.44,7.09,10.44,9.09,16.44-3.17,0-6.44.36-9.75.86s-6.63,1.14-9.9,1.69c-12.35,4.45-26.35-.55-30.88-11.6-1.7-1.41-3.73-2.46-6.08-3.16s-5.03-1.05-8.03-1.05c-4.94,0-8.65,1.05-11.02,3.19-3.34,4.08-3.34,10.08.66,13.08,18,10,38,9,58,13,23,6,42,28,37,52-5,27-39,27-61.88,33.82-2.76.48-5.66.84-8.7,1.08s-6.23.36-9.56.36c-15.58,0-27.97-2-37.17-6-2.3-1-4.4-2.12-6.28-3.37-2.35-1.72-4.49-3.76-6.35-6.04s-3.45-4.79-4.69-7.46c-.68-2.7-1.52-5.54-1.97-8.39s-.52-5.68.44-8.33c.94-1.81,2.2-3.61,3.76-5.41Z"/>
</svg>