<?xml version="1.0" encoding="UTF-8"?>
<svg id="Layer_1" data-name="Layer 1" xmlns="http://www.w3.org/2000/svg" viewBox="0 0 1123.8 144.56">
  <defs>
    <style>
      .cls-1 {
        fill: #000;
        stroke-width: 0px;
      }
    </style>
  </defs>
  <path class="cls-1" d="M.3,4.21h70.59c15.38,0,26.89,3.66,34.55,10.97,1.91,1.83,3.59,3.85,5.06,6.07,7.94,16.48,20.94,36.48,8.94,52.48-17,22-47,13-70,19-7,2-6,14-6.48,23.42v25.5H.3v-10.18c0-3.18,0-7,.01-11.3-.87-5.44.13-10.44,2.13-14.44C14.45,78.73,10.45,51.73.68,25.66c-.33-4.27-.37-8.09-.37-11.27V4.21ZM55,62.9c9.44-.17,24.44,4.83,27.44-6.17,5-21-20-26-37-25,1,9,7,17,8.66,26.37.66,2.88.9,4.8.9,4.8Z"/>
  <path class="cls-1" d="M139.71,141.65v-10.18c0-3.18.02-7,.28-11.24,13.45-31.5,8.45-62.5-.25-94.54-.03-4.3-.03-8.12-.03-11.3V4.21h70.78c13.12,0,23.16,1.12,30.09,3.38s12.53,6.42,16.78,12.52c4.25,6.09,6.38,13.52,6.38,22.27,0,3.81-.41,7.36-1.22,10.65s-2.03,6.32-3.61,9.08c-4.47,9.63-12.47,17.63-23.47,19.63,29,6,40,34,41,60-16,0-36,5-46-3-13-11-15-56-35-45-12,7-6,48-24.14,47.92h-31.6ZM186.37,61.55c11.07-.83,24.07,1.17,32.14-7.79,1.68-2.36,2.57-5.02,2.57-8.02,0-4.44-1.41-7.84-4.22-10.22-2.81-2.37-8.09-3.56-15.84-3.56h-18.66s0,1.75.02,4.37c.06,7.39,1.06,14.39,2.8,20.35.68,2.91,1.19,4.87,1.19,4.87Z"/>
  <path class="cls-1" d="M282.6,71.95c-2.15-6.22-2.15-13.22-.65-19.71.69-3.19,1.56-6.24,2.6-9.15,3.12-8.73,7.81-16.23,14.06-22.48,8.33-8.33,18.85-13.89,31.54-16.67,3.17-.69,6.48-1.22,9.93-1.56,40.36-10.66,84.36,15.34,81.67,58.85.34,3.42.51,6.97.51,10.66,0,16.06-2.7,29.24-8.11,39.52-5.41,10.28-13.22,18.28-23.44,24s-22.95,8.58-38.2,8.58c-7.75,0-14.83-.62-21.25-1.85-2.14-.41-4.2-.89-6.18-1.45-29.65-5.97-25.65-41.97-39.57-61.9-1.1-2.19-2.08-4.47-2.92-6.85ZM330.79,66.68c3.65,17.04-.35,48.04,25.65,44.04,29-4,27-40,27-63,0-7-4-14-11-17-13-5-27-1-37,7-5,5-9,14-6.23,20.6.37,2.51.93,5.27,1.58,8.36Z"/>
  <path class="cls-1" d="M509.49,10.23c11.95-2.5,29.95-9.5,32.95-3.5,19,32,13,72-1.72,107.94-.7,2.05-1.57,4.01-2.61,5.9-3.14,5.67-7.86,10.63-14.17,14.9-8.41,5.68-19.17,8.53-32.3,8.53-13.88,0-24.62-1.88-32.25-5.62-7.63-3.75-13.52-9.23-17.67-16.45-4.16-7.22-6.61-16.14-7.36-26.77l40.59-5.53c.06,6.06.59,10.56,1.59,13.5,1,2.94,2.69,5.31,5.06,7.12,1.62,1.19,3.94,1.78,6.94,1.78,4.75,0,8.23-1.76,10.45-5.29,2.22-3.53,3.33-9.48,3.33-17.84,0,0,0-1.32,0-3.64-.89-18.52,9.11-35.52,9.11-53.52,1-6,0-11-1.19-17.28-.48-2.67-.76-4.21-.76-4.21Z"/>
  <path class="cls-1" d="M573.12,4.21h113.81v29.34h-71.25s0,5.46.23,11.02c-2.46,19.15,20.54,8.15,32.82,10.82h33.05v14.02c.67,5.31.67,9.31,1.67,14.31-20,1-39,2-59,4,1,9,2,17-1,26,25,3,53-7,75,1,5,2,3,24-5,26-33,8-68,1-102.22.92-3.62,0-6.84,0-9.52,0h-8.58v-10.18c-.67-14.74,4.33-27.74,8.33-41.74,2-5,1-11,1-16-4-20-9-39-9.33-59.34V4.21Z"/>
  <path class="cls-1" d="M811.85,80.59c11.6,1.14,29.6,6.14,30.6,13.14,0,41-54,64-89,42-23-13-44-35-46.55-63.12,0-3.79.17-7.43.5-10.93,1.68-17.48,7.56-31.31,17.64-41.49,12.09-12.21,29.2-18.32,51.33-18.32,17.31,0,30.92,3.5,40.83,10.5,3.3,2.33,6.32,5.08,9.06,8.25,6.19,7.11,12.19,15.11,15.19,24.11-6-2-11,1-17.15,2.38-5.68,1.84-11.18,3.85-15.86,3.97-4.67.12-8.51-1.65-10.78-7.3-2.38-3.25-5.29-5.75-8.73-7.5-3.44-1.75-7.28-2.62-11.53-2.62-9.62,0-17,3.87-22.12,11.61-1.94,2.87-3.39,6.56-4.36,11.07-.48,2.26-.85,4.71-1.09,7.38-2.38,17.01,6.62,33.01,22.62,41.01,13,7,31,2,37-13.19,1.37-3.3,2.18-6.96,2.4-10.95Z"/>
  <path class="cls-1" d="M851.98,4.41c21.47-.69,43.47,1.31,64.12-.2,5.38,0,10.76,0,15.99,0h48.56v16.97c-1.2,5.55,2.8,14.55-.2,15.55-11,5-25,3-38,3,12,25-2,48-5.05,72.78-.06,2.34-.06,4.61-.06,6.79v22.36h-42.47v-32.75c.01-3.63.03-7.41.1-11.23-1.52-19.94,19.48-40.94,6.48-52.94-9-9-31,1-44-7-9-6-3-18-5.04-27.81-.27-3.31-.43-5.5-.43-5.5Z"/>
  <path class="cls-1" d="M1000.2,97.69c14.25-1.96,29.25-1.96,43.25-4.96-1,8-2,18,6,22,11,6,25,1,31-10,3-5,4-12-2-15-30-12-85-15-79.29-57.94,1.02-3.34,2.55-6.58,4.6-9.72,4.09-6.28,10.25-11.22,18.47-14.81,8.22-3.59,19.48-5.39,33.8-5.39,17.56,0,30.95,3.27,40.17,9.8,2.3,1.63,4.38,3.51,6.21,5.62s3.46,4.46,4.95,7c4.09,5.44,7.09,10.44,9.09,16.44-19,0-42,13-50.53-9.05-1.7-1.41-3.73-2.46-6.08-3.16s-5.03-1.05-8.03-1.05c-4.94,0-8.66,1.05-11.16,3.14-2.5,2.09-3.75,4.64-3.7,7.64-.5,5.49,3.5,6.49,5.5,6.49,23,9,48,7,69,18,24,13,8,47-5.63,63.82-1.46,1.63-3.04,3.16-4.75,4.57-3.41,2.82-7.3,5.19-11.67,7.11-8.75,3.84-19.78,5.77-33.09,5.77-15.58,0-27.97-2-37.17-6-2.3-1-4.4-2.12-6.28-3.37-9.41-6.89-15.41-18.89-13.93-30.66.29-2.03.72-4.12,1.27-6.27Z"/>
</svg>